HIERARCHY
ROOT Hips
{
	OFFSET -1.602300 6.242603 43.997101
	CHANNELS 6 Xposition Yposition Zposition Zrotation Xrotation Yrotation
	JOINT Chest
	{
		OFFSET -0.204900 1.598101 7.917301
		CHANNELS 6 Xposition Yposition Zposition Zrotation Xrotation Yrotation
		JOINT Chest2
		{
			OFFSET 0.000000 0.000000 3.404099
			CHANNELS 6 Xposition Yposition Zposition Zrotation Xrotation Yrotation
			JOINT Neck
			{
				OFFSET 0.000000 0.000000 7.928600
				CHANNELS 6 Xposition Yposition Zposition Zrotation Xrotation Yrotation
				JOINT Head
				{
					OFFSET 0.000000 0.000000 2.173897
					CHANNELS 6 Xposition Yposition Zposition Zrotation Xrotation Yrotation
					End Site
					{
						OFFSET 0.000000 0.000001 10.404503
					}
				}
			}
			JOINT LeftCollar
			{
				OFFSET 2.833800 -1.396299 4.843300
				CHANNELS 6 Xposition Yposition Zposition Zrotation Xrotation Yrotation
				JOINT LeftShoulder
				{
					OFFSET 4.363600 0.000000 0.000000
					CHANNELS 6 Xposition Yposition Zposition Zrotation Xrotation Yrotation
					JOINT LeftElbow
					{
						OFFSET 0.000000 -0.000001 -10.306900
						CHANNELS 6 Xposition Yposition Zposition Zrotation Xrotation Yrotation
						JOINT LeftWrist
						{
							OFFSET 0.000000 -0.000001 -12.404900
							CHANNELS 6 Xposition Yposition Zposition Zrotation Xrotation Yrotation
							End Site
							{
								OFFSET 0.000000 0.000000 -2.173901
							}
						}
					}
				}
			}
			JOINT RightCollar
			{
				OFFSET -2.354800 -1.897200 5.063099
				CHANNELS 6 Xposition Yposition Zposition Zrotation Xrotation Yrotation
				JOINT RightShoulder
				{
					OFFSET -4.375800 0.000000 0.000000
					CHANNELS 6 Xposition Yposition Zposition Zrotation Xrotation Yrotation
					JOINT RightElbow
					{
						OFFSET 0.000000 -0.000001 -10.005001
						CHANNELS 6 Xposition Yposition Zposition Zrotation Xrotation Yrotation
						JOINT RightWrist
						{
							OFFSET 0.000000 -0.000001 -13.174900
							CHANNELS 6 Xposition Yposition Zposition Zrotation Xrotation Yrotation
							End Site
							{
								OFFSET 0.000000 0.000000 -2.173901
							}
						}
					}
				}
			}
		}
	}
	JOINT LeftHip
	{
		OFFSET 2.240600 0.386800 -2.614101
		CHANNELS 6 Xposition Yposition Zposition Zrotation Xrotation Yrotation
		JOINT LeftKnee
		{
			OFFSET 0.000000 -0.000001 -18.592899
			CHANNELS 6 Xposition Yposition Zposition Zrotation Xrotation Yrotation
			JOINT LeftAnkle
			{
				OFFSET 0.000000 -0.000001 -18.765800
				CHANNELS 6 Xposition Yposition Zposition Zrotation Xrotation Yrotation
				End Site
				{
					OFFSET 0.000000 -8.655000 0.000000
				}
			}
		}
	}
	JOINT RightHip
	{
		OFFSET -2.014900 -0.220900 -2.615898
		CHANNELS 6 Xposition Yposition Zposition Zrotation Xrotation Yrotation
		JOINT RightKnee
		{
			OFFSET 0.000000 -0.000001 -18.633900
			CHANNELS 6 Xposition Yposition Zposition Zrotation Xrotation Yrotation
			JOINT RightAnkle
			{
				OFFSET 0.000000 -0.000001 -18.285101
				CHANNELS 6 Xposition Yposition Zposition Zrotation Xrotation Yrotation
				End Site
				{
					OFFSET 0.000000 -7.524500 0.000000
				}
			}
		}
	}
}
MOTION
Frames: 10
Frame Time: 0.041667
-6.465001 26.746004 7.507408 5.741267 -6.702565 3.782219 -0.204901 1.598101 7.917302 -5.866381 10.533128 1.612806 0.000001 -0.000000 3.404099 -2.853472 -17.003177 -2.185806 -0.000002 -0.000001 7.928599 3.655804 9.453185 -6.357654 -0.000000 0.000003 2.173901 0.925675 -5.994313 2.044314 2.833800 -1.396301 4.843310 19.602049 1.250323 11.598805 4.363595 0.000005 -0.000010 -29.684767 6.196752 -118.716911 0.000001 0.000002 -10.306894 618.278778 -179.196925 539.780670 0.000003 0.000003 -12.404898 -289.040710 363.869230 -323.365361 -2.354805 -1.897204 5.063101 12.022856 9.282800 -20.805127 -4.375797 -0.000001 -0.000008 15.069197 -11.875078 132.920604 0.000000 0.000001 -10.004994 -612.585897 -177.144016 -541.078953 -0.000001 0.000003 -13.174895 -68.525908 -11.152235 334.747243 2.240597 0.386801 -2.614102 135.663184 -37.928782 103.511100 0.000000 -0.000001 -18.592896 -116.314351 37.805555 134.408274 -0.000000 0.000002 -18.765799 10.078081 36.810533 -7.720869 -2.014900 -0.220897 -2.615898 -114.898549 -18.630336 -91.728088 -0.000001 0.000003 -18.633886 176.864935 28.926732 -179.547874 -0.000005 -0.000004 -18.285084 -13.069972 33.339427 -208.172213
-6.463201 26.759806 7.489906 5.763754 -6.715424 3.792961 -0.204901 1.598101 7.917307 -5.885415 10.618611 1.594532 0.000001 0.000003 3.404097 -2.818726 -17.014293 -2.179865 -0.000002 0.000001 7.928605 3.704434 9.292446 -6.437351 -0.000000 0.000001 2.173904 0.714073 -6.288311 2.146862 2.833800 -1.396297 4.843305 19.358457 1.459409 11.814822 4.363589 0.000006 -0.000009 -29.242663 6.620925 -118.893663 -0.000002 -0.000002 -10.306896 618.957097 -179.279051 539.721767 0.000006 0.000006 -12.404897 -288.873343 363.935948 -323.698347 -2.354804 -1.897199 5.063104 12.394567 9.177054 -20.810833 -4.375795 0.000002 -0.000003 14.712292 -12.011425 132.572565 0.000004 0.000001 -10.004995 -612.692448 -177.109442 -541.085838 0.000000 0.000001 -13.174898 -68.953260 -11.163350 335.060722 2.240598 0.386803 -2.614103 135.649784 -37.984017 103.601218 0.000002 -0.000000 -18.592892 -116.321141 37.890119 134.438941 -0.000001 0.000002 -18.765799 10.034665 36.817298 -7.572604 -2.014900 -0.220896 -2.615899 -114.955376 -18.560812 -91.775947 -0.000001 0.000004 -18.633884 176.815907 28.909647 -179.522506 -0.000006 -0.000003 -18.285086 -13.147494 33.322440 -208.083967
-6.460199 26.773106 7.470406 5.802302 -6.959687 3.782797 -0.204900 1.598101 7.917309 -5.915051 10.950449 1.631485 0.000000 0.000002 3.404104 -2.782580 -17.021048 -2.173423 0.000000 0.000003 7.928604 3.742084 9.101437 -6.517235 0.000000 0.000003 2.173904 0.517002 -6.633760 2.321097 2.833802 -1.396296 4.843305 19.211032 1.611697 12.010631 4.363590 0.000005 -0.000010 -28.851942 7.157855 -119.038791 0.000001 0.000001 -10.306893 619.920318 -179.366983 539.666579 0.000003 0.000005 -12.404896 -288.809413 364.000233 -324.046113 -2.354801 -1.897198 5.063107 12.652890 9.045336 -21.464776 -4.375796 -0.000000 -0.000007 14.608952 -11.924698 132.871590 -0.000001 0.000002 -10.004992 -612.806102 -177.093568 -541.095673 0.000001 0.000003 -13.174891 -69.397556 -11.258539 335.345022 2.240600 0.386804 -2.614103 135.499451 -38.163948 103.467756 -0.000000 -0.000001 -18.592888 -116.344227 37.953654 134.468557 0.000000 0.000002 -18.765797 10.003039 36.814166 -7.407044 -2.014895 -0.220896 -2.615897 -114.950076 -18.609202 -91.612521 -0.000000 0.000005 -18.633884 176.757892 28.888855 -179.494107 -0.000006 -0.000006 -18.285084 -13.233168 33.304866 -207.989697
-6.456000 26.785501 7.449707 5.814452 -7.019601 3.782010 -0.204900 1.598102 7.917309 -5.926076 11.136498 1.643063 0.000000 0.000003 3.404105 -2.747686 -17.037688 -2.167147 -0.000000 0.000001 7.928601 3.774029 8.875774 -6.593825 0.000000 0.000001 2.173898 0.360835 -6.932581 2.535092 2.833801 -1.396297 4.843299 19.229037 1.626899 12.027836 4.363591 0.000006 -0.000005 -28.711988 7.577029 -118.954015 0.000002 -0.000001 -10.306895 620.862338 -179.537915 539.676524 0.000004 0.000004 -12.404898 -288.855694 363.981600 -324.341532 -2.354803 -1.897200 5.063103 12.535983 8.972412 -21.291163 -4.375794 0.000003 -0.000003 14.790556 -12.018674 132.389516 0.000003 0.000001 -10.004991 -612.766487 -177.081492 -541.081903 0.000002 0.000004 -13.174892 -69.931206 -11.400100 335.621043 2.240599 0.386803 -2.614103 135.474535 -38.158826 103.504222 0.000000 0.000003 -18.592888 -116.398417 37.968485 134.486903 0.000001 0.000003 -18.765797 10.007724 36.798631 -7.235756 -2.014896 -0.220895 -2.615900 -114.983147 -18.593568 -91.615991 -0.000000 0.000003 -18.633884 176.679399 28.869656 -179.467141 -0.000005 -0.000005 -18.285084 -13.316888 33.288546 -207.899880
-6.451000 26.797007 7.427708 5.810923 -7.116217 3.763941 -0.204899 1.598100 7.917308 -5.923625 11.390697 1.677150 0.000000 0.000001 3.404105 -2.712484 -17.065516 -2.161474 -0.000001 0.000002 7.928604 3.783976 8.627205 -6.646553 0.000001 0.000004 2.173899 0.271776 -7.134977 2.732283 2.833801 -1.396298 4.843304 19.347009 1.569134 11.984635 4.363589 0.000008 -0.000012 -28.732693 7.889180 -118.766963 -0.000005 -0.000003 -10.306896 621.575191 -179.627527 539.631171 0.000006 0.000009 -12.404892 -288.855202 364.102058 -324.755879 -2.354803 -1.897200 5.063100 12.215970 8.916109 -20.470791 -4.375796 0.000001 -0.000004 14.880747 -12.215300 131.332271 0.000001 -0.000001 -10.004992 -612.791841 -177.112788 -541.173592 0.000000 0.000001 -13.174894 -70.552419 -11.546284 335.885098 2.240599 0.386803 -2.614104 135.439714 -38.152344 103.485036 0.000001 0.000003 -18.592894 -116.440491 37.952943 134.491329 -0.000002 0.000001 -18.765795 10.043915 36.777676 -7.091116 -2.014896 -0.220898 -2.615897 -114.995428 -18.593793 -91.594578 -0.000000 0.000003 -18.633886 176.609240 28.845173 -179.438973 -0.000005 -0.000005 -18.285086 -13.404176 33.271918 -207.807003
-6.444500 26.809704 7.401413 5.761169 -7.215005 3.697266 -0.204900 1.598098 7.917314 -5.885335 11.656962 1.760309 0.000000 0.000002 3.404099 -2.696719 -17.118177 -2.161581 -0.000001 -0.000000 7.928602 3.776851 8.384086 -6.670126 0.000001 0.000001 2.173896 0.253641 -7.215228 2.847568 2.833802 -1.396298 4.843305 19.492564 1.528981 12.098584 4.363592 0.000006 -0.000010 -28.770557 8.226495 -118.756062 -0.000001 -0.000001 -10.306894 622.162970 -179.752739 539.570738 0.000002 0.000002 -12.404901 -288.783950 364.169239 -325.199322 -2.354801 -1.897202 5.063103 11.950304 8.803210 -20.530302 -4.375792 0.000001 -0.000007 15.084271 -11.943169 131.057998 0.000002 -0.000001 -10.004991 -612.826374 -177.122938 -541.116000 0.000000 -0.000002 -13.174891 -71.314668 -11.716238 336.187539 2.240598 0.386804 -2.614100 135.417543 -38.228483 103.425231 -0.000001 -0.000002 -18.592896 -116.350251 37.950454 134.470019 0.000000 0.000001 -18.765797 10.092112 36.740571 -6.993726 -2.014897 -0.220899 -2.615894 -115.020686 -18.435609 -91.622316 -0.000001 0.000002 -18.633886 176.665643 28.777725 -179.380862 -0.000006 -0.000007 -18.285082 -13.531051 33.246537 -207.667886
-6.436799 26.823708 7.372307 5.678677 -7.282934 3.584641 -0.204900 1.598100 7.917311 -5.826747 11.892588 1.893190 0.000000 0.000004 3.404098 -2.697849 -17.197108 -2.168418 -0.000002 0.000001 7.928599 3.744886 8.152299 -6.669882 0.000000 -0.000000 2.173904 0.298746 -7.154330 2.856665 2.833800 -1.396300 4.843304 19.896541 1.520187 11.295532 4.363591 0.000006 -0.000003 -29.197546 8.112796 -117.955386 0.000003 0.000000 -10.306893 622.374050 -179.909997 539.477956 0.000002 0.000005 -12.404895 -288.456975 364.237514 -325.663092 -2.354805 -1.897200 5.063103 11.670959 8.683996 -20.771119 -4.375788 0.000001 -0.000010 15.264617 -11.489579 130.938046 -0.000001 0.000000 -10.004993 -612.862164 -177.137350 -541.024420 0.000000 0.000005 -13.174894 -72.123266 -11.847900 336.529431 2.240599 0.386803 -2.614098 135.415494 -38.130074 103.331077 0.000001 -0.000002 -18.592894 -116.353434 37.900935 134.446332 0.000001 0.000001 -18.765799 10.171150 36.693842 -6.930610 -2.014896 -0.220896 -2.615896 -115.012763 -18.380164 -91.697755 -0.000000 0.000004 -18.633884 176.694180 28.722848 -179.355385 -0.000005 -0.000005 -18.285086 -13.631995 33.226920 -207.558876
-6.431099 26.837706 7.346706 5.637491 -7.364817 3.482252 -0.204900 1.598098 7.917305 -5.809413 12.157852 2.026568 0.000001 0.000003 3.404100 -2.698282 -17.289601 -2.177177 -0.000000 -0.000000 7.928603 3.690411 7.922281 -6.652891 0.000000 0.000000 2.173906 0.362902 -7.034027 2.780376 2.833802 -1.396299 4.843302 20.078378 1.506718 11.608280 4.363592 0.000005 -0.000004 -29.203136 8.634419 -118.191875 0.000001 0.000001 -10.306896 622.484262 -180.099330 539.345942 0.000002 0.000005 -12.404896 -287.905424 364.327454 -326.121288 -2.354800 -1.897203 5.063101 11.334923 8.541776 -21.207760 -4.375792 0.000003 -0.000004 15.379979 -10.748109 130.987401 -0.000002 -0.000000 -10.004996 -613.121548 -177.161952 -540.882353 -0.000000 0.000006 -13.174900 -72.844937 -11.880447 336.899491 2.240598 0.386802 -2.614101 135.352602 -38.113053 103.198332 -0.000001 -0.000001 -18.592894 -116.300008 37.879106 134.416251 -0.000000 0.000002 -18.765799 10.221730 36.642513 -6.918786 -2.014895 -0.220896 -2.615899 -115.032093 -18.310231 -91.749583 0.000001 0.000004 -18.633886 176.757864 28.671522 -179.335510 -0.000005 -0.000002 -18.285084 -13.720195 33.209701 -207.462584
-6.427300 26.851404 7.324604 5.628893 -7.640586 3.384274 -0.204900 1.598095 7.917310 -5.816610 12.600363 2.169790 -0.000000 0.000001 3.404103 -2.694399 -17.369231 -2.184626 -0.000000 -0.000002 7.928599 3.620886 7.695747 -6.616557 0.000001 0.000000 2.173897 0.408038 -6.991414 2.700496 2.833802 -1.396301 4.843305 20.195495 1.572597 12.030983 4.363589 0.000008 -0.000005 -29.102736 9.169443 -118.513863 0.000001 0.000002 -10.306895 622.850852 -180.238064 539.239938 0.000002 0.000005 -12.404896 -287.677022 364.397450 -326.552792 -2.354802 -1.897204 5.063102 10.992660 8.380380 -21.823648 -4.375793 0.000000 -0.000010 15.434547 -9.807902 131.221417 0.000003 -0.000000 -10.004989 -613.546276 -177.199914 -540.691544 0.000000 0.000005 -13.174889 -73.429185 -11.883592 337.299794 2.240599 0.386801 -2.614103 135.147095 -38.303868 102.866289 0.000001 0.000003 -18.592892 -116.204686 37.904596 134.393766 0.000001 0.000001 -18.765799 10.224607 36.595262 -6.947805 -2.014898 -0.220899 -2.615897 -115.005619 -18.312077 -91.608990 0.000001 0.000002 -18.633884 176.851233 28.624587 -179.322273 -0.000005 -0.000004 -18.285084 -13.795775 33.194600 -207.379119
-6.425001 26.865004 7.305511 5.627200 -7.651907 3.335046 -0.204900 1.598102 7.917308 -5.829618 12.764637 2.231519 0.000002 0.000000 3.404103 -2.684212 -17.426241 -2.188174 0.000000 -0.000002 7.928604 3.536173 7.469384 -6.570368 0.000000 0.000003 2.173897 0.430999 -7.051402 2.649610 2.833801 -1.396300 4.843306 20.332966 1.604846 12.341498 4.363595 0.000006 -0.000016 -29.056410 9.613224 -118.678840 -0.000002 -0.000000 -10.306896 623.201432 -180.330573 539.165953 0.000008 0.000005 -12.404895 -287.627134 364.198008 -327.104262 -2.354803 -1.897204 5.063103 10.620517 8.241156 -22.358759 -4.375790 0.000003 -0.000006 15.466024 -8.923302 131.407143 -0.000002 -0.000004 -10.004992 -613.990840 -177.242521 -540.547291 0.000001 0.000001 -13.174900 -73.863366 -11.897021 337.725397 2.240599 0.386801 -2.614100 135.080187 -38.386254 102.795201 0.000000 0.000000 -18.592892 -116.096168 37.976627 134.386718 -0.000001 0.000001 -18.765800 10.180149 36.552761 -7.009255 -2.014896 -0.220898 -2.615898 -115.062323 -18.174737 -91.691472 -0.000001 0.000003 -18.633883 176.956705 28.585149 -179.320661 -0.000005 -0.000004 -18.285082 -13.854136 33.182760 -207.313617
